<?xml version="1.0" standalone="no"?>
<!DOCTYPE svg PUBLIC "-//W3C//DTD SVG 20010904//EN"
 "http://www.w3.org/TR/2001/REC-SVG-20010904/DTD/svg10.dtd">
<svg version="1.0" xmlns="http://www.w3.org/2000/svg"
 width="1024.000000pt" height="1024.000000pt" viewBox="0 0 1024.000000 1024.000000"
 preserveAspectRatio="xMidYMid meet">

<g transform="translate(0.000000,1024.000000) scale(0.100000,-0.100000)"
fill="#000000" stroke="none">
<path d="M4840 8934 c-19 -2 -80 -9 -135 -15 -780 -81 -1556 -428 -2140 -957
-713 -644 -1136 -1466 -1257 -2442 -17 -140 -17 -689 0 -830 95 -772 374
-1435 850 -2020 114 -139 399 -424 540 -538 571 -463 1214 -738 1962 -839 193
-26 736 -26 930 0 740 99 1382 372 1954 831 128 103 372 340 489 476 493 570
800 1264 904 2040 26 194 26 737 0 930 -101 748 -376 1391 -839 1962 -114 141
-399 426 -538 540 -574 467 -1216 742 -1972 844 -107 15 -662 28 -748 18z
m695 -259 c440 -52 798 -159 1195 -356 358 -178 649 -388 935 -674 296 -295
509 -596 696 -980 179 -369 282 -720 336 -1150 21 -163 24 -620 5 -780 -54
-465 -166 -847 -368 -1245 -180 -359 -386 -642 -669 -925 -283 -283 -566 -489
-925 -669 -398 -202 -780 -314 -1245 -368 -160 -19 -617 -16 -780 5 -430 54
-781 157 -1150 336 -384 187 -685 400 -980 696 -286 286 -496 577 -674 935
-166 335 -267 638 -325 983 -41 238 -50 359 -50 627 0 275 15 437 60 675 210
1094 922 2033 1923 2534 432 217 882 338 1391 375 111 8 499 -4 625 -19z"/>
<path d="M4084 6855 c-16 -9 -38 -30 -48 -47 -18 -29 -19 -112 -30 -1692 -9
-1173 -9 -1671 -2 -1696 16 -49 69 -83 121 -77 30 4 343 180 1220 687 649 375
1299 751 1445 835 146 84 273 164 284 178 25 34 25 101 -1 135 -28 38 -2876
1683 -2923 1688 -20 3 -48 -2 -66 -11z m1412 -1031 c673 -389 1224 -709 1224
-713 0 -9 -2471 -1434 -2476 -1428 -3 3 -1 616 5 1363 6 746 11 1386 11 1420
0 35 3 64 6 64 4 0 558 -318 1230 -706z"/>
</g>
</svg>
